<?xml version="1.0" standalone="no"?>
<!DOCTYPE svg PUBLIC "-//W3C//DTD SVG 20010904//EN"
 "http://www.w3.org/TR/2001/REC-SVG-20010904/DTD/svg10.dtd">
<svg version="1.0" xmlns="http://www.w3.org/2000/svg"
 width="2000.000000pt" height="2000.000000pt" viewBox="0 0 2000.000000 2000.000000"
 preserveAspectRatio="xMidYMid meet">
<metadata>
Created by potrace 1.14, written by Peter Selinger 2001-2017
</metadata>
<g transform="translate(0.000000,2000.000000) scale(0.100000,-0.100000)"
fill="#000000" stroke="none">
<path d="M9598 19025 c-2 -2 -57 -6 -123 -10 -66 -4 -137 -8 -157 -10 -20 -2
-72 -7 -115 -10 -43 -3 -89 -8 -103 -10 -14 -2 -54 -7 -90 -10 -36 -3 -83 -8
-105 -11 -104 -13 -122 -15 -145 -19 -34 -6 -76 -13 -130 -20 -41 -5 -84 -12
-190 -30 -19 -4 -47 -8 -62 -10 -15 -2 -35 -6 -45 -9 -10 -3 -31 -8 -48 -10
-31 -6 -100 -20 -145 -30 -30 -7 -68 -15 -95 -20 -211 -43 -578 -144 -860
-237 -104 -35 -192 -63 -195 -64 -3 -1 -16 -6 -30 -12 -14 -6 -59 -22 -100
-37 -41 -14 -84 -30 -95 -35 -11 -5 -49 -21 -85 -35 -36 -13 -78 -30 -95 -37
-16 -7 -32 -13 -35 -14 -3 0 -23 -9 -45 -19 -64 -28 -99 -43 -110 -46 -5 -1
-21 -8 -35 -15 -14 -7 -54 -25 -90 -41 -36 -16 -68 -33 -72 -39 -4 -5 -8 -7
-8 -3 0 7 -90 -33 -145 -64 -11 -7 -38 -20 -60 -30 -22 -10 -47 -23 -57 -28
-9 -5 -63 -33 -120 -63 -56 -30 -139 -73 -183 -97 -119 -64 -479 -282 -483
-291 -2 -5 -8 -9 -13 -9 -5 0 -31 -15 -57 -32 -26 -18 -56 -37 -65 -43 -60
-36 -301 -208 -305 -217 -2 -5 -8 -8 -14 -8 -5 0 -15 -6 -22 -12 -8 -7 -24
-20 -36 -28 -12 -8 -28 -19 -34 -25 -6 -5 -58 -46 -116 -90 -58 -44 -113 -87
-124 -95 -69 -55 -266 -221 -292 -245 -6 -5 -44 -39 -84 -75 -41 -36 -103 -93
-139 -127 -36 -35 -67 -63 -68 -63 -5 0 -333 -330 -333 -334 0 -2 -21 -26 -47
-53 -89 -93 -158 -168 -198 -217 -22 -26 -45 -53 -50 -59 -6 -7 -35 -41 -65
-77 -30 -36 -57 -67 -60 -70 -3 -3 -32 -39 -65 -80 -32 -41 -64 -78 -69 -82
-6 -4 -7 -8 -2 -8 5 0 -3 -10 -17 -23 -15 -12 -27 -28 -27 -35 0 -7 -5 -12
-11 -12 -5 0 -7 -4 -4 -10 3 -5 2 -10 -3 -10 -10 0 -225 -292 -311 -423 -8
-12 -31 -47 -50 -77 -20 -30 -38 -57 -41 -60 -3 -3 -11 -15 -17 -27 -7 -13
-19 -33 -25 -45 -7 -13 -19 -27 -25 -31 -7 -4 -13 -12 -13 -16 0 -9 -59 -111
-78 -134 -5 -7 -21 -33 -36 -59 -68 -125 -80 -145 -96 -168 -9 -14 -27 -45
-39 -70 -12 -25 -38 -74 -58 -110 -65 -120 -212 -418 -261 -530 -11 -25 -29
-66 -41 -92 -20 -44 -42 -96 -46 -108 -1 -3 -9 -22 -19 -42 -9 -21 -16 -40
-16 -43 -1 -3 -10 -26 -21 -52 -28 -65 -121 -306 -123 -318 -1 -5 -4 -14 -7
-20 -6 -10 -122 -362 -152 -460 -14 -46 -92 -329 -102 -372 -3 -10 -11 -49
-20 -87 -8 -37 -17 -71 -20 -75 -2 -4 -7 -23 -10 -42 -3 -19 -12 -62 -20 -97
-8 -34 -17 -77 -20 -95 -4 -17 -11 -52 -16 -77 -6 -25 -12 -61 -15 -80 -2 -19
-6 -42 -9 -50 -2 -8 -7 -33 -10 -55 -3 -23 -8 -52 -11 -65 -2 -14 -7 -38 -9
-53 -2 -16 -6 -40 -9 -55 -3 -15 -8 -47 -11 -72 -3 -25 -7 -55 -10 -68 -2 -13
-7 -51 -10 -85 -3 -34 -8 -69 -10 -77 -2 -8 -7 -44 -10 -80 -3 -36 -8 -81 -10
-100 -3 -19 -7 -69 -11 -110 -3 -41 -7 -95 -9 -120 -28 -342 -28 -994 1 -1345
1 -22 5 -73 9 -114 3 -40 7 -88 9 -105 3 -17 7 -64 11 -105 4 -41 9 -84 11
-95 2 -12 6 -43 9 -71 4 -27 8 -61 10 -75 3 -14 9 -56 15 -95 5 -38 12 -81 15
-95 2 -14 7 -41 9 -60 6 -36 40 -224 50 -272 3 -16 8 -38 10 -50 2 -13 7 -34
10 -48 3 -14 8 -36 10 -50 8 -40 15 -70 37 -160 22 -91 27 -112 35 -147 8 -40
92 -337 108 -384 8 -25 17 -54 19 -65 2 -10 7 -26 10 -34 3 -8 15 -46 27 -85
12 -38 25 -79 30 -90 5 -11 14 -38 20 -60 7 -22 18 -54 26 -72 8 -17 14 -36
14 -43 0 -7 6 -26 14 -43 8 -18 24 -59 36 -92 13 -33 26 -69 31 -80 5 -11 18
-45 29 -75 12 -30 27 -69 35 -85 13 -28 36 -83 40 -95 4 -11 19 -47 38 -90 39
-89 60 -136 95 -210 20 -41 37 -77 37 -80 2 -9 122 -246 147 -290 4 -8 12 -24
17 -35 5 -11 36 -69 70 -129 34 -60 61 -113 61 -118 0 -4 5 -8 10 -8 6 0 10
-5 10 -11 0 -6 27 -55 60 -110 33 -54 60 -102 60 -107 0 -5 9 -17 20 -27 11
-10 20 -22 20 -27 0 -5 31 -56 70 -115 38 -59 70 -110 70 -115 0 -4 4 -8 9 -8
5 0 13 -9 16 -20 3 -11 12 -26 18 -32 7 -7 29 -38 50 -68 20 -30 50 -73 67
-95 16 -22 33 -47 37 -55 3 -8 9 -17 12 -20 16 -14 71 -90 71 -99 0 -5 4 -11
8 -13 5 -1 28 -30 53 -63 24 -33 49 -65 54 -71 6 -6 21 -25 35 -43 14 -18 31
-39 38 -46 6 -8 12 -16 12 -19 0 -3 10 -16 22 -29 13 -12 37 -40 53 -61 31
-39 74 -91 110 -132 11 -12 36 -41 55 -64 172 -206 632 -670 806 -815 16 -13
54 -47 84 -74 30 -28 63 -53 73 -57 9 -3 17 -11 17 -18 0 -6 12 -19 27 -28 16
-9 39 -27 53 -40 14 -13 45 -39 70 -58 51 -40 72 -57 103 -84 12 -10 33 -26
47 -35 14 -9 36 -26 50 -38 23 -19 219 -163 280 -205 14 -10 43 -31 65 -48 22
-16 47 -33 55 -36 8 -4 37 -23 65 -43 27 -20 57 -40 66 -46 44 -25 185 -115
195 -123 6 -6 26 -18 45 -27 19 -10 36 -21 39 -24 5 -5 32 -22 93 -55 12 -6
40 -23 62 -37 22 -13 51 -30 65 -37 14 -7 43 -23 65 -35 22 -13 76 -42 120
-66 44 -24 86 -48 93 -53 6 -6 12 -7 12 -3 0 4 6 3 13 -3 12 -10 236 -126 250
-129 4 -1 40 -18 80 -36 110 -53 265 -121 297 -132 10 -3 60 -25 103 -43 23
-11 69 -29 102 -41 33 -12 74 -28 90 -36 17 -7 46 -18 65 -25 19 -7 44 -16 55
-21 19 -8 385 -129 510 -169 61 -19 385 -107 421 -114 10 -2 48 -12 84 -21 36
-9 74 -19 85 -21 11 -2 31 -6 45 -9 14 -4 36 -8 50 -11 14 -2 36 -7 50 -10 14
-3 34 -8 45 -10 11 -1 34 -6 50 -9 64 -14 282 -54 325 -59 14 -2 57 -9 95 -16
39 -6 84 -13 100 -15 65 -7 131 -15 151 -19 11 -2 54 -7 95 -11 41 -4 88 -8
104 -11 17 -2 64 -6 105 -9 41 -3 95 -8 120 -10 309 -27 1062 -27 1350 0 19 2
69 6 110 9 41 4 91 9 110 11 19 2 64 7 100 11 36 3 74 8 85 10 11 2 43 6 71 9
28 2 64 7 80 9 16 3 90 14 164 26 74 11 146 22 160 25 14 3 42 7 64 10 21 3
41 7 45 9 3 2 22 7 41 10 19 3 46 8 60 11 14 4 34 8 45 10 11 2 31 6 45 9 14
3 48 10 75 16 47 9 161 35 195 44 8 3 33 9 55 15 22 5 67 17 100 26 33 8 71
18 85 21 14 2 41 11 60 18 19 8 37 14 40 14 12 0 105 27 225 64 72 23 135 43
140 44 30 8 358 125 400 143 53 23 151 61 156 61 4 0 33 12 65 27 33 15 61 27
64 28 3 0 27 11 54 23 27 12 50 22 52 22 4 0 95 41 184 83 36 17 68 30 73 29
4 -1 7 3 7 8 0 6 5 10 11 10 23 0 462 227 568 294 22 14 43 26 46 26 8 0 339
203 353 216 6 7 21 16 32 19 11 3 20 11 20 16 0 6 4 8 8 5 5 -3 21 6 36 19 16
14 37 27 47 30 11 4 19 11 19 16 0 5 4 9 10 9 5 0 30 15 54 33 24 17 80 57
125 87 44 30 80 58 81 63 0 4 6 7 14 7 8 0 16 3 18 8 2 4 28 25 58 47 48 34
125 94 183 141 9 8 20 14 23 14 3 0 15 11 28 25 13 14 26 25 30 25 5 0 30 20
70 55 6 6 38 32 71 59 33 27 65 54 70 60 6 7 32 29 59 51 27 22 61 51 76 65
14 14 77 72 140 130 108 99 400 386 400 393 0 2 28 32 63 68 52 54 219 242
293 329 36 42 138 166 164 200 14 18 30 37 36 44 6 6 64 83 129 171 66 88 124
163 130 167 6 5 6 8 0 8 -6 0 -6 3 1 8 5 4 30 36 55 72 24 36 47 67 52 68 4 2
7 8 7 13 0 4 19 36 43 69 23 34 49 72 57 85 75 121 148 238 171 274 16 24 34
57 41 72 7 16 16 29 20 29 5 0 8 4 8 9 0 4 25 51 55 104 30 52 55 100 55 105
0 6 3 12 7 14 5 2 22 30 38 63 17 33 38 72 48 88 10 15 15 27 10 27 -4 0 -3 4
2 8 6 4 26 41 47 82 20 41 54 112 77 157 22 46 37 83 33 83 -4 0 -2 4 4 8 8 6
42 80 139 307 7 17 22 50 33 75 27 60 174 457 202 545 12 39 24 77 27 85 4 8
7 17 8 20 1 3 4 12 8 20 5 14 30 97 81 275 22 74 36 125 41 150 2 6 8 30 15
55 16 60 17 65 35 144 8 37 17 71 20 75 2 4 7 23 10 42 3 19 12 62 20 95 8 34
16 73 19 85 2 13 13 74 25 134 24 126 29 156 37 205 3 19 7 46 10 60 3 14 7
43 10 65 3 22 7 51 10 65 5 27 9 54 18 140 4 30 9 66 11 80 3 14 7 52 10 85 3
33 8 76 10 95 2 19 7 69 11 110 3 41 7 91 9 110 20 220 28 939 12 1170 -4 63
-10 146 -12 183 -2 38 -7 92 -9 120 -3 29 -8 77 -11 107 -10 109 -16 156 -21
195 -6 41 -7 49 -19 150 -4 33 -8 62 -10 65 -2 3 -6 26 -10 50 -16 114 -37
244 -56 335 -11 55 -22 112 -24 127 -3 16 -12 58 -21 95 -9 38 -17 75 -19 83
-2 8 -13 53 -24 100 -11 47 -22 97 -25 110 -3 14 -12 50 -21 80 -9 30 -18 66
-21 80 -2 14 -9 36 -14 50 -5 14 -18 61 -31 105 -48 177 -208 643 -260 762
-11 24 -19 47 -19 53 0 6 -4 18 -9 28 -5 9 -13 28 -19 42 -5 14 -17 41 -25 60
-8 19 -27 63 -41 97 -30 72 -60 138 -126 278 -81 173 -105 220 -112 223 -5 2
-8 11 -8 21 0 9 -4 21 -9 26 -7 9 -59 105 -133 245 -10 19 -34 62 -54 95 -19
33 -37 68 -41 78 -3 9 -9 17 -14 17 -5 0 -9 4 -9 10 0 12 -61 113 -73 121 -5
3 -8 10 -8 15 0 5 -30 56 -67 113 -37 58 -69 110 -71 115 -2 6 -17 27 -32 47
-16 20 -29 42 -29 48 0 6 -4 11 -8 11 -5 0 -15 12 -23 28 -8 15 -16 29 -19 32
-3 3 -30 41 -60 85 -29 44 -57 82 -60 85 -4 3 -22 28 -40 55 -19 28 -39 56
-45 62 -5 7 -18 23 -27 35 -72 96 -133 175 -142 185 -29 33 -36 43 -36 53 0 5
-4 10 -8 10 -5 0 -36 35 -70 78 -33 42 -76 94 -94 114 -32 36 -95 108 -138
158 -144 167 -550 575 -716 717 -44 38 -158 139 -170 151 -7 6 -17 12 -23 12
-6 0 -11 4 -11 8 0 5 -30 33 -66 62 -37 30 -72 59 -78 65 -6 6 -27 22 -46 35
-19 13 -41 31 -49 38 -8 8 -57 46 -110 85 -53 40 -103 77 -111 84 -8 7 -69 51
-135 97 -66 47 -125 90 -132 96 -7 5 -15 10 -18 10 -8 0 -69 44 -73 53 -2 4
-10 7 -18 7 -8 0 -14 5 -14 10 0 6 -7 10 -15 10 -8 0 -15 5 -15 10 0 6 -5 10
-11 10 -5 0 -36 17 -67 39 -56 37 -177 113 -217 135 -27 15 -216 125 -235 136
-8 6 -31 18 -50 28 -19 10 -75 40 -125 67 -247 132 -549 274 -805 377 -69 28
-138 56 -155 63 -16 7 -57 23 -90 35 -33 12 -69 26 -80 30 -36 15 -105 40
-113 41 -12 2 -26 7 -47 15 -11 4 -22 8 -25 8 -3 1 -11 5 -17 9 -7 5 -13 6
-13 2 0 -3 -9 -1 -20 5 -22 12 -303 100 -319 100 -5 0 -22 5 -38 12 -15 6 -37
13 -48 15 -11 2 -31 8 -45 13 -14 5 -36 12 -50 14 -14 3 -41 10 -60 16 -19 5
-48 13 -65 15 -16 3 -41 10 -55 15 -20 7 -88 23 -190 45 -8 2 -45 10 -83 19
-37 9 -82 18 -100 21 -17 3 -39 8 -48 11 -9 2 -32 7 -50 9 -19 3 -45 7 -59 10
-66 15 -151 30 -220 39 -14 2 -54 9 -90 15 -36 6 -87 13 -115 16 -27 3 -59 7
-70 9 -11 2 -45 7 -75 10 -30 4 -68 8 -85 10 -78 10 -154 18 -200 21 -123 8
-234 16 -285 21 -59 6 -917 14 -922 9z"/>
</g>
</svg>
