<?xml version="1.0" standalone="no"?>
<!DOCTYPE svg PUBLIC "-//W3C//DTD SVG 20010904//EN"
 "http://www.w3.org/TR/2001/REC-SVG-20010904/DTD/svg10.dtd">
<svg version="1.0" xmlns="http://www.w3.org/2000/svg"
 width="400.000000pt" height="400.000000pt" viewBox="0 0 400.000000 400.000000"
 preserveAspectRatio="xMidYMid meet">
<metadata>
Created by potrace 1.11, written by Peter Selinger 2001-2013
</metadata>
<g transform="translate(0.000000,400.000000) scale(0.100000,-0.100000)"
fill="#000000" stroke="none">
<path d="M0 3626 l0 -373 25 5 c14 2 25 0 25 -7 0 -20 74 -10 92 13 15 18 18
19 18 4 0 -10 7 -18 15 -18 7 0 18 -7 23 -16 6 -11 17 -15 30 -12 19 5 20 2
15 -22 -4 -23 -1 -29 17 -35 15 -5 20 -13 17 -25 -5 -20 61 -90 85 -90 10 0
10 -2 -1 -9 -10 -7 -10 -10 -1 -13 10 -3 9 -11 -2 -33 -9 -17 -13 -36 -11 -43
4 -10 -3 -13 -23 -11 -16 1 -42 -2 -58 -6 -21 -6 -32 -4 -40 6 -14 17 -37 32
-94 60 -24 12 -46 28 -49 36 -3 7 -11 13 -18 13 -6 0 -24 11 -39 25 l-26 24 0
-171 c0 -144 2 -169 14 -159 8 6 19 25 26 41 7 17 16 30 21 30 22 0 1 -49 -38
-91 -15 -17 -23 -36 -21 -50 l3 -24 21 20 c46 44 97 58 122 33 7 -7 12 -32 12
-58 0 -25 5 -63 11 -85 5 -22 14 -55 19 -73 11 -42 3 -69 -22 -75 -11 -3 -17
-10 -13 -16 9 -16 -61 -14 -77 2 -17 17 -53 37 -67 37 -8 0 -11 -366 -11
-1230 l0 -1230 615 0 c338 0 615 4 615 8 0 5 9 17 19 29 19 20 20 20 101 3
l82 -17 19 31 c29 48 24 71 -26 119 -25 24 -45 49 -45 55 0 14 83 82 100 82 7
0 27 -16 44 -35 l31 -35 59 24 c46 19 62 31 72 55 7 17 24 41 37 54 21 19 25
34 30 102 2 44 8 90 12 101 6 20 4 21 -32 17 -21 -2 -44 -6 -51 -8 -7 -3 -11
-1 -8 4 3 5 27 12 53 16 47 7 63 17 63 43 0 18 -106 7 -195 -21 -86 -27 -315
-164 -315 -189 0 -5 -12 -27 -27 -51 -15 -23 -49 -85 -75 -137 -34 -65 -47
-85 -44 -62 8 47 68 172 102 212 17 19 37 47 46 61 19 30 133 108 229 156 52
26 93 37 185 50 102 14 121 20 139 41 30 35 55 18 88 -56 26 -56 30 -60 75
-71 26 -7 56 -18 67 -25 20 -13 61 -26 79 -25 5 1 12 -3 15 -8 3 -4 27 -19 54
-33 26 -13 47 -28 47 -32 0 -5 6 -8 13 -8 15 -1 75 -60 59 -60 -5 0 -12 4 -14
8 -12 32 -172 117 -306 163 l-54 19 6 -28 c4 -15 9 -61 13 -102 5 -64 10 -80
34 -108 16 -18 29 -43 29 -56 0 -27 80 -99 102 -91 7 2 32 9 55 15 23 6 49 18
58 26 11 11 23 14 43 8 20 -5 22 -8 10 -11 -10 -3 -31 -33 -48 -67 -31 -62
-32 -63 -71 -63 -38 0 -39 0 -23 18 24 26 1 25 -43 -2 -50 -31 -52 -16 -2 20
23 17 36 31 30 31 -7 0 -39 -20 -71 -45 -47 -36 -66 -45 -99 -45 -46 0 -51 -8
-21 -35 11 -10 20 -24 20 -32 0 -9 16 -13 56 -13 46 0 55 3 50 15 -6 18 2 45
15 45 5 0 9 -13 9 -30 0 -17 5 -30 10 -30 6 0 10 11 10 25 0 27 15 34 24 10 3
-8 17 -15 31 -15 23 0 25 3 19 27 -7 25 -6 27 9 14 10 -7 17 -20 17 -27 0 -8
3 -15 8 -16 41 -8 150 -11 687 -15 l620 -4 2 115 c1 90 5 120 17 132 9 8 19
27 22 42 3 15 7 32 9 38 2 6 40 14 89 18 277 20 248 21 284 -9 l32 -27 0 597
0 596 -22 -6 c-13 -4 -37 -18 -55 -31 -17 -13 -36 -24 -41 -24 -13 0 -81 -83
-109 -131 -26 -46 -36 -120 -24 -184 32 -167 40 -203 50 -228 13 -33 44 -178
39 -182 -2 -2 -57 -6 -124 -10 l-121 -7 -5 26 c-3 15 -4 61 -2 102 4 82 0 101
-51 274 -9 30 -23 80 -31 110 -8 30 -19 64 -24 75 -6 11 -30 83 -55 160 -25
77 -50 148 -56 158 -9 17 -7 18 13 11 13 -4 50 -7 83 -6 116 5 500 33 518 38
16 5 17 29 17 320 l0 316 -32 -7 c-63 -13 -70 -10 -142 59 -67 65 -82 96 -46
96 21 0 29 33 10 45 -5 3 -10 11 -10 16 0 6 5 7 10 4 6 -3 10 -2 10 3 0 23 42
19 65 -5 23 -26 24 -26 77 -11 l53 15 3 186 c2 159 0 187 -12 187 -8 0 -18 -5
-22 -11 -3 -6 -15 -9 -25 -6 -11 3 -19 2 -19 -1 0 -12 -60 -34 -74 -29 -7 3
-19 0 -25 -6 -7 -7 -11 -7 -11 -1 0 17 156 164 174 164 15 0 16 47 16 510 l0
510 -30 0 c-65 0 -137 -118 -81 -133 25 -6 51 -61 51 -107 l0 -37 -102 4 c-57
2 -121 6 -143 9 -22 3 -96 10 -165 15 -69 5 -161 11 -205 15 -44 3 -137 6
-207 7 l-128 2 0 28 c0 30 -6 32 -60 16 -33 -10 -40 -17 -49 -53 -5 -22 -13
-67 -16 -98 l-6 -58 -42 -1 c-23 -1 -50 -1 -59 0 -10 1 -34 -3 -55 -8 -44 -12
-68 3 -79 52 -3 17 -15 40 -26 51 -16 17 -18 31 -14 81 7 73 -4 215 -15 215
-5 0 -9 -24 -9 -52 l0 -53 -20 33 c-16 26 -18 37 -9 53 9 18 8 20 -7 17 -10
-2 -24 -14 -30 -27 -8 -16 -23 -25 -43 -27 -29 -4 -30 -3 -24 28 l6 31 -47 -6
c-26 -4 -53 -10 -59 -14 -7 -4 -49 -6 -94 -5 -45 2 -84 -1 -87 -6 -9 -15 -103
-6 -131 12 -15 10 -24 12 -20 5 6 -9 3 -10 -10 -5 -10 4 -21 2 -25 -5 -6 -8
-14 -7 -31 2 -19 11 -111 15 -428 17 l-403 3 7 -50 c6 -43 4 -51 -9 -51 -18 0
-21 7 -31 63 -5 31 -10 37 -30 37 -24 0 -25 -3 -25 -55 0 -42 -4 -55 -15 -55
-18 0 -29 39 -23 80 l5 30 -489 0 -488 0 0 -374z m2400 344 c0 -11 -7 -20 -15
-20 -18 0 -19 12 -3 28 16 16 18 15 18 -8z m-487 3 c-7 -2 -19 -2 -25 0 -7 3
-2 5 12 5 14 0 19 -2 13 -5z m-1013 -264 c0 -5 -8 -9 -18 -9 -10 0 -23 -5 -29
-11 -17 -17 -4 -39 23 -39 19 0 23 -4 20 -22 -5 -34 -47 -31 -64 4 -15 31 -3
60 33 77 11 5 14 10 7 10 -7 1 -10 6 -7 11 7 12 35 -5 35 -21z m2527 -55 c-3
-3 -12 -4 -19 -1 -8 3 -5 6 6 6 11 1 17 -2 13 -5z m133 -19 c0 -23 -3 -25 -48
-25 -36 0 -50 5 -59 19 -11 18 -9 20 15 24 15 2 42 5 60 6 28 1 32 -2 32 -24z
m-2617 1 c7 -16 -1 -26 -20 -26 -7 0 -13 9 -13 20 0 23 25 27 33 6z m272 -16
c3 -5 1 -10 -4 -10 -6 0 -11 5 -11 10 0 6 2 10 4 10 3 0 8 -4 11 -10z m300
-41 c-1 -22 -8 -46 -14 -52 -6 -6 -11 -28 -11 -48 0 -21 -4 -40 -9 -44 -6 -3
-10 34 -10 90 -1 93 0 95 23 95 21 0 23 -4 21 -41z m1373 -1 c20 -20 14 -23
-40 -20 -37 2 -49 0 -38 -7 8 -5 18 -7 22 -5 4 3 8 0 8 -5 0 -6 -5 -11 -11
-11 -5 0 -7 -4 -4 -10 8 -13 3 -13 -30 0 -20 8 -27 7 -32 -5 -3 -11 -12 -13
-26 -9 -21 7 -58 46 -58 61 1 4 38 11 83 14 46 3 90 6 99 7 8 1 20 -3 27 -10z
m-2063 -37 c8 -17 11 -32 6 -35 -11 -7 -26 11 -35 42 -11 32 11 27 29 -7z
m518 7 c3 -11 -1 -16 -12 -16 -9 0 -34 -2 -56 -5 -33 -4 -43 -1 -57 18 l-18
23 70 -1 c55 -2 70 -5 73 -19z m-396 6 c-3 -3 -12 -4 -19 -1 -8 3 -5 6 6 6 11
1 17 -2 13 -5z m166 -21 c-7 -2 -21 -2 -30 0 -10 3 -4 5 12 5 17 0 24 -2 18
-5z m836 1 c17 -4 31 -13 31 -21 0 -16 23 -43 37 -43 5 0 16 -9 26 -20 36 -42
13 -199 -24 -162 -15 14 -67 15 -124 3 -22 -5 -80 -12 -130 -16 -76 -6 -88 -5
-74 6 20 17 32 85 19 109 -7 13 -3 23 13 41 12 13 20 26 18 29 -2 3 6 10 18
16 11 6 30 19 40 28 11 10 25 15 31 11 6 -3 10 -3 9 2 -1 4 -1 11 0 16 1 9 67
9 110 1z m1428 -30 c-3 -3 -12 -4 -19 -1 -8 3 -5 6 6 6 11 1 17 -2 13 -5z
m-147 -34 c-6 -11 -15 -20 -20 -20 -14 0 -12 27 3 33 23 10 28 7 17 -13z
m-363 -32 c6 -7 14 -30 17 -51 l7 -39 50 7 49 7 0 -66 0 -66 33 0 c20 0 39 -8
50 -20 9 -11 23 -17 31 -14 8 3 17 1 20 -4 5 -9 -149 -22 -254 -22 -40 0 -49
3 -53 21 -3 13 0 22 10 26 11 4 12 8 2 13 -8 6 -11 35 -10 96 3 108 20 148 48
112z m583 2 c8 -5 11 -12 8 -16 -10 -9 -38 3 -38 16 0 12 10 13 30 0z m-656
-9 c10 -15 -31 -43 -53 -36 -21 6 -28 25 -14 38 9 10 61 9 67 -2z m-346 -95
c21 -43 23 -63 7 -70 -20 -7 -67 3 -60 14 5 8 -69 25 -92 21 -7 -1 -13 7 -13
17 0 13 12 23 43 32 23 7 46 17 51 21 13 11 52 -10 64 -35z m-1678 -6 c0 -17
-57 -37 -90 -32 -33 5 -41 28 -12 35 34 9 102 7 102 -3z m-673 -56 c-3 -3 -12
-4 -19 -1 -8 3 -5 6 6 6 11 1 17 -2 13 -5z m1343 -42 c0 -10 -7 -12 -22 -8
-13 3 -26 6 -30 6 -5 0 -8 9 -8 19 0 17 3 18 30 8 17 -6 30 -18 30 -25z m-266
6 c3 -13 6 -38 6 -56 0 -24 5 -35 18 -39 23 -6 22 -37 -1 -61 -15 -14 -45 -18
-180 -23 -183 -7 -187 -6 -187 63 l0 38 60 0 c47 0 60 -3 60 -15 0 -12 14 -15
69 -15 l68 0 -4 65 -5 65 45 0 c38 0 46 -3 51 -22z m-296 -10 c15 -15 16 -48
2 -48 -9 0 -30 40 -30 56 0 8 16 4 28 -8z m522 -58 c-8 -5 -23 -10 -32 -10
-10 0 -18 -4 -18 -10 0 -5 -16 -12 -35 -16 -19 -3 -38 -10 -41 -15 -3 -5 -15
-9 -27 -9 -22 1 -22 1 -2 16 11 8 36 17 57 20 21 4 35 10 33 14 -6 9 18 17 55
19 20 0 22 -1 10 -9z m500 -20 c0 -5 -9 -10 -19 -10 -11 0 -23 5 -26 10 -4 6
5 10 19 10 14 0 26 -4 26 -10z m1215 -8 c65 -2 85 -5 73 -12 -10 -6 -74 -8
-155 -6 -76 3 -177 1 -225 -3 -49 -3 -88 -3 -88 1 0 5 12 8 28 9 30 0 126 10
129 12 2 2 123 2 238 -1z m-1746 -24 c-41 -25 -110 -58 -120 -58 -8 1 15 16
51 34 36 19 67 32 69 30 2 -2 2 -5 0 -6z m716 2 c-3 -5 -16 -10 -28 -10 -18 0
-19 2 -7 10 20 13 43 13 35 0z m1433 -2 c-3 -7 -21 -16 -41 -19 -50 -8 -57
-17 -13 -16 44 1 53 -7 32 -29 -10 -10 -16 -30 -15 -48 5 -83 6 -81 -78 -94
-43 -7 -102 -12 -130 -12 l-53 0 0 79 0 79 77 11 c42 6 81 15 87 20 10 8 105
37 129 40 5 1 7 -5 5 -11z m-1698 -8 c0 -5 -15 -10 -32 -10 -25 0 -29 3 -18
10 20 13 50 13 50 0z m-1130 -19 c0 -5 -16 -11 -36 -13 -34 -4 -50 3 -37 16
10 9 73 7 73 -3z m920 4 c0 -2 -10 -10 -22 -16 -21 -11 -22 -11 -9 4 13 16 31
23 31 12z m513 -25 c18 -18 24 -30 15 -31 -10 0 -10 -2 0 -6 13 -5 47 -63 44
-75 -1 -5 7 -8 19 -8 18 0 19 -2 6 -15 -15 -15 -12 -55 3 -55 5 0 11 -9 15
-19 3 -11 20 -29 38 -40 27 -17 29 -21 14 -27 -10 -4 -23 -2 -30 5 -17 17
-195 14 -251 -5 -26 -9 -50 -13 -54 -10 -9 9 10 37 33 50 31 18 59 57 77 108
9 26 24 62 33 80 10 21 12 34 5 36 -11 4 -14 42 -2 42 4 0 20 -13 35 -30z
m254 14 c-3 -3 -12 -4 -19 -1 -8 3 -5 6 6 6 11 1 17 -2 13 -5z m-492 -84 c3
-5 -1 -10 -9 -10 -9 0 -16 5 -16 10 0 6 4 10 9 10 6 0 13 -4 16 -10z m-895
-33 c0 -9 2 -9 8 -1 4 6 24 13 46 16 l38 4 -6 -109 c-3 -61 -9 -113 -12 -116
-3 -3 -61 -7 -130 -9 l-124 -4 -10 27 c-5 14 -10 57 -10 94 l0 69 64 7 c53 5
67 11 81 31 13 20 19 22 35 14 11 -6 20 -16 20 -23z m1040 -1 c0 -8 -4 -18
-10 -21 -5 -3 -10 -15 -10 -25 0 -25 -48 -80 -70 -80 -10 0 -23 -7 -30 -15 -7
-8 -20 -15 -30 -15 -19 0 -34 -25 -24 -41 3 -5 -2 -9 -10 -9 -19 0 -21 -11 -4
-28 8 -8 8 -12 1 -12 -6 0 -13 -9 -16 -19 -4 -18 -8 -19 -45 -8 -22 7 -44 16
-48 20 -4 4 -14 7 -22 7 -8 0 -39 12 -68 27 -45 23 -55 33 -60 60 -3 18 -10
33 -15 33 -5 0 -6 7 -3 15 4 8 1 15 -5 15 -6 0 -11 12 -11 26 0 14 4 23 10 19
6 -3 10 1 10 9 0 9 -4 16 -10 16 -5 0 -10 7 -10 15 0 8 2 15 5 15 10 0 69 -32
85 -45 8 -7 25 -16 38 -19 17 -6 22 -3 22 9 0 15 8 16 56 10 30 -3 62 -9 70
-12 24 -9 104 7 123 25 42 40 81 53 81 28z m-575 -5 c3 -5 1 -13 -5 -16 -15
-9 -43 3 -35 15 8 13 32 13 40 1z m355 -11 c0 -5 -7 -7 -15 -4 -8 4 -15 8 -15
10 0 2 7 4 15 4 8 0 15 -4 15 -10z m1666 -94 c4 -11 10 -23 14 -26 18 -12 70
-106 70 -127 0 -13 5 -23 12 -23 6 0 9 -2 6 -5 -15 -15 -498 -41 -498 -27 0
10 51 24 100 27 21 1 26 8 32 41 4 21 7 60 7 86 1 59 11 65 122 73 46 4 85 8
87 10 10 9 42 -10 48 -29z m-994 -12 c-2 -15 4 -23 17 -27 11 -3 23 -16 26
-30 9 -34 -37 -96 -71 -98 -13 -1 -30 -2 -36 -3 -7 -1 -12 7 -12 17 1 10 -19
35 -47 59 -27 23 -49 46 -49 53 0 18 35 46 51 41 8 -3 30 -1 49 3 54 14 75 10
72 -15z m-1022 -24 c0 -10 -11 -32 -25 -49 -27 -31 -28 -68 -4 -97 9 -11 14
-10 29 9 10 12 22 19 26 14 4 -4 3 -12 -4 -19 -7 -7 -8 -17 -1 -30 12 -23 3
-23 -44 2 -20 11 -37 17 -37 13 0 -5 -7 5 -15 21 -23 44 -19 83 10 102 14 9
25 22 25 28 0 16 21 36 32 30 4 -3 8 -14 8 -24z m520 -146 c0 -21 -21 -28 -83
-30 -70 -2 -70 8 -2 54 l50 34 17 -22 c10 -12 18 -28 18 -36z m-1470 -9 c0 -8
-9 -15 -20 -15 -11 0 -20 7 -20 15 0 8 9 15 20 15 11 0 20 -7 20 -15z m875
-27 c17 -1 24 -3 18 -5 -7 -3 -13 -9 -13 -14 0 -6 7 -6 18 -1 12 7 22 5 34 -7
14 -14 14 -19 3 -34 -12 -17 -14 -17 -29 4 -22 33 -30 17 -9 -19 21 -36 47
-54 93 -62 26 -4 35 -10 35 -25 0 -22 -29 -28 -195 -40 -103 -8 -125 -26 -122
-94 1 -30 -2 -51 -8 -51 -7 0 -7 -6 0 -19 5 -11 10 -40 10 -64 0 -55 4 -54
-190 -67 -80 -5 -190 -14 -245 -20 -290 -29 -565 -46 -565 -35 0 3 16 26 35
52 19 27 40 56 47 66 11 15 32 19 111 24 53 3 97 10 97 14 0 5 7 9 15 9 16 0
15 20 -6 102 -11 42 -10 50 6 68 12 13 23 17 34 11 9 -5 41 -5 71 0 30 4 88 8
128 8 l72 1 1 33 c3 100 -3 91 69 99 103 11 131 18 124 30 -4 6 -1 8 7 4 8 -3
22 -9 32 -12 12 -5 17 -17 17 -49 0 -24 -4 -45 -10 -47 -5 -2 -6 -9 -1 -16 6
-10 18 -11 52 -3 24 5 66 13 92 16 l49 7 -6 33 c-4 18 -4 52 0 75 l7 42 46 -7
c25 -4 60 -7 76 -7z m-795 -49 c0 -12 -62 -22 -69 -12 -3 6 -13 12 -21 15 -12
5 -12 7 4 13 11 5 21 3 26 -4 5 -9 9 -5 13 10 6 22 7 22 27 4 11 -10 20 -22
20 -26z m2414 14 c10 -26 -35 -46 -49 -23 -11 17 3 40 24 40 10 0 22 -8 25
-17z m-66 -29 c7 -11 42 -28 54 -26 4 1 5 -7 3 -18 -2 -11 0 -22 6 -25 5 -4 9
-50 9 -104 l0 -98 -57 -7 c-32 -3 -111 -9 -175 -12 l-118 -7 0 76 c0 42 -4 78
-9 82 -13 7 -5 42 16 74 10 14 22 35 28 46 6 11 24 23 40 27 45 10 195 5 203
-8z m707 -22 c0 -18 -20 -15 -23 4 -3 10 1 15 10 12 7 -3 13 -10 13 -16z
m-3147 -28 c17 -3 32 -10 32 -15 0 -5 -21 -18 -47 -29 -27 -11 -56 -25 -66
-31 -12 -6 -25 -5 -44 5 -26 13 -26 14 -5 20 12 4 23 13 23 19 1 7 2 17 4 22
1 6 3 14 3 19 2 8 24 6 100 -10z m1541 -10 c17 -4 31 -10 31 -15 0 -14 -52
-10 -80 6 -24 13 -24 14 -4 15 12 0 36 -3 53 -6z m-1519 -59 c-15 -16 -34 -25
-54 -25 -29 0 -28 2 19 24 63 31 63 31 35 1z m765 -75 c3 -5 -1 -10 -10 -10
-9 0 -13 5 -10 10 3 6 8 10 10 10 2 0 7 -4 10 -10z m1707 -252 c2 -51 3 -56
11 -64 4 -4 7 -63 7 -131 0 -113 -2 -123 -18 -123 -11 0 -27 8 -36 19 -18 19
-105 54 -166 66 -19 4 -57 14 -83 22 l-48 16 6 76 c8 94 13 111 30 111 7 0 15
4 17 10 2 5 31 11 65 13 34 2 64 5 67 8 2 2 36 5 75 7 l71 2 2 -32z m-1781
-135 c0 -5 2 -18 5 -30 2 -12 0 -24 -5 -27 -5 -3 -53 -11 -107 -16 -54 -6
-100 -14 -103 -19 -4 -4 -25 -18 -47 -29 -89 -45 -150 -63 -239 -69 -97 -6
-125 -15 -125 -39 0 -9 -8 -28 -19 -42 -31 -44 -57 -95 -71 -137 -7 -22 -16
-44 -20 -50 -4 -5 -13 -27 -19 -47 -8 -24 -19 -38 -29 -38 -14 0 -15 -2 -3 -9
11 -7 12 -13 4 -23 -6 -7 -23 -53 -37 -102 -14 -49 -29 -92 -32 -95 -4 -3 -5
1 -1 10 3 9 9 54 12 100 4 46 12 90 17 97 8 9 5 12 -11 12 -11 0 -21 6 -21 13
0 30 -65 145 -107 188 -39 40 -43 50 -40 83 2 20 0 39 -5 42 -5 4 -8 15 -5 25
3 11 1 19 -5 19 -25 0 7 19 41 25 36 6 39 9 32 28 -5 12 -4 32 2 44 8 19 20
22 111 27 137 9 206 15 301 26 85 10 186 17 349 25 54 2 101 7 104 10 8 8 72
6 73 -2z m391 -271 c3 -9 155 -102 166 -102 4 0 27 -16 51 -35 24 -19 61 -40
82 -45 42 -12 72 -36 66 -54 -6 -16 -103 -13 -167 7 -62 18 -147 77 -178 122
-22 32 -45 115 -32 115 5 0 10 -4 12 -8z m48 -1139 c-8 -2 -24 -8 -35 -13 -11
-5 -26 -10 -34 -12 -11 -3 -10 -7 3 -21 16 -16 16 -18 1 -33 -15 -16 -18 -16
-33 1 -13 13 -14 19 -4 22 6 3 12 9 12 14 0 11 -83 -30 -88 -44 -2 -4 -8 -5
-13 -1 -13 8 9 26 71 56 69 33 79 36 110 36 14 0 18 -2 10 -5z m-205 -93 c3
-5 1 -10 -4 -10 -6 0 -11 5 -11 10 0 6 2 10 4 10 3 0 8 -4 11 -10z m-25 -20
c0 -5 -4 -10 -10 -10 -5 0 -10 5 -10 10 0 6 5 10 10 10 6 0 10 -4 10 -10z
m-50 -34 c0 -3 -4 -8 -10 -11 -5 -3 -10 -1 -10 4 0 6 5 11 10 11 6 0 10 -2 10
-4z m320 -12 c11 -12 10 -18 -3 -32 -16 -15 -18 -15 -31 3 -10 14 -11 24 -4
32 14 17 23 16 38 -3z m-132 -57 c-4 -28 -46 -30 -62 -4 -9 15 -7 21 8 32 25
19 58 2 54 -28z m677 -47 c3 -5 1 -10 -4 -10 -6 0 -11 5 -11 10 0 6 2 10 4 10
3 0 8 -4 11 -10z m50 -50 c3 -5 1 -10 -4 -10 -6 0 -11 5 -11 10 0 6 2 10 4 10
3 0 8 -4 11 -10z m240 -40 c3 -5 1 -10 -4 -10 -6 0 -11 5 -11 10 0 6 2 10 4
10 3 0 8 -4 11 -10z m-1298 -26 c-3 -3 -12 -4 -19 -1 -8 3 -5 6 6 6 11 1 17
-2 13 -5z m1113 -4 c0 -5 -4 -10 -10 -10 -5 0 -10 5 -10 10 0 6 5 10 10 10 6
0 10 -4 10 -10z m249 -24 c9 -10 9 -16 1 -21 -17 -11 -40 3 -34 20 8 19 18 19
33 1z m-1325 -42 c7 -19 -1 -34 -19 -34 -18 0 -28 32 -13 42 19 11 25 10 32
-8z m-84 -40 c0 -3 -13 -19 -30 -37 -16 -18 -30 -35 -30 -39 0 -5 -5 -8 -11
-8 -15 0 -8 15 26 54 28 32 45 44 45 30z"/>
<path d="M2880 3288 c0 -7 5 -20 10 -28 8 -12 10 -9 10 13 0 15 -4 27 -10 27
-5 0 -10 -6 -10 -12z"/>
<path d="M2918 3223 c7 -3 16 -2 19 1 4 3 -2 6 -13 5 -11 0 -14 -3 -6 -6z"/>
<path d="M1110 3120 c0 -5 14 -10 30 -10 17 0 30 5 30 10 0 6 -13 10 -30 10
-16 0 -30 -4 -30 -10z"/>
<path d="M3433 3027 c-3 -5 0 -14 7 -20 10 -9 11 -9 5 2 -6 11 -4 13 8 8 11
-4 17 -1 17 7 0 14 -28 17 -37 3z"/>
<path d="M995 2404 c-45 -23 -44 -27 3 -20 113 16 127 17 110 6 -10 -6 -47
-13 -83 -17 -44 -4 -62 -9 -53 -15 9 -6 5 -8 -12 -6 -14 2 -27 6 -30 10 -3 4
-12 3 -20 -2 -11 -7 -12 -12 -3 -21 14 -14 141 -8 151 8 10 16 81 43 113 43
16 0 29 4 29 9 0 24 -160 28 -205 5z"/>
<path d="M1515 379 c-10 -15 3 -25 16 -12 7 7 7 13 1 17 -6 3 -14 1 -17 -5z"/>
<path d="M2070 3992 c0 -5 7 -9 15 -9 8 0 15 4 15 9 0 4 -7 8 -15 8 -8 0 -15
-4 -15 -8z"/>
<path d="M3079 3943 c0 -32 -2 -77 -2 -101 -2 -42 -2 -42 34 -42 60 0 83 35
85 126 l1 74 -58 0 -59 0 -1 -57z"/>
<path d="M3696 3958 c-12 -96 -13 -198 -2 -199 47 -5 106 27 106 58 0 7 5 13
10 13 6 0 10 9 10 20 0 11 3 20 8 20 4 0 7 28 6 62 l-1 63 -66 3 -66 3 -5 -43z"/>
<path d="M215 3190 c3 -5 8 -10 11 -10 2 0 4 5 4 10 0 6 -5 10 -11 10 -5 0 -7
-4 -4 -10z"/>
<path d="M1847 682 c-8 -9 -19 -27 -25 -38 -10 -19 -8 -23 11 -28 12 -3 37 -6
55 -6 l33 0 -18 32 c-30 53 -38 60 -56 40z"/>
<path d="M1808 593 c6 -2 18 -2 25 0 6 3 1 5 -13 5 -14 0 -19 -2 -12 -5z"/>
<path d="M1898 583 c7 -3 16 -2 19 1 4 3 -2 6 -13 5 -11 0 -14 -3 -6 -6z"/>
<path d="M1787 558 c-11 -37 -8 -196 4 -264 l11 -62 50 -4 c50 -3 50 -3 68 37
41 93 49 169 29 250 -10 41 -13 44 -53 50 -22 3 -55 9 -72 12 -26 4 -32 1 -37
-19z m115 -35 c21 -18 24 -53 6 -71 -21 -21 -66 -14 -84 13 -36 54 29 103 78
58z"/>
<path d="M1837 513 c-10 -17 13 -53 33 -53 25 0 37 25 20 45 -13 16 -46 20
-53 8z"/>
<path d="M1734 346 c-14 -15 -24 -42 -39 -104 l-13 -53 30 30 c17 17 37 31 45
31 10 0 12 6 7 23 -4 12 -10 36 -13 53 -4 23 -9 29 -17 20z"/>
<path d="M1962 286 l-22 -46 25 -24 c14 -14 25 -32 25 -41 0 -9 5 -13 10 -10
15 9 12 128 -3 149 -11 15 -15 12 -35 -28z"/>
<path d="M1435 250 c-25 -26 -27 -32 -15 -44 13 -13 20 -11 49 14 22 19 32 34
28 44 -9 24 -30 19 -62 -14z"/>
<path d="M1610 234 c-31 -17 -31 -20 0 -66 37 -55 50 -49 50 22 0 64 -5 69
-50 44z"/>
<path d="M1739 207 c-40 -31 -51 -87 -16 -86 32 0 67 48 56 77 -9 25 -17 27
-40 9z"/>
<path d="M2031 173 c-7 -27 -16 -57 -19 -67 -4 -15 3 -12 30 13 20 18 44 38
53 45 16 12 15 14 -10 34 -15 12 -31 22 -34 22 -4 0 -13 -21 -20 -47z"/>
<path d="M1539 193 c12 -23 60 -68 65 -62 5 5 -61 79 -70 79 -3 0 0 -8 5 -17z"/>
<path d="M1830 200 c34 -11 60 -11 35 0 -11 5 -29 8 -40 8 -16 0 -15 -2 5 -8z"/>
<path d="M1920 201 c0 -5 -7 -17 -16 -26 -15 -15 -15 -19 2 -51 14 -25 25 -34
45 -34 26 0 26 0 17 52 -9 48 -20 67 -40 68 -5 0 -8 -4 -8 -9z"/>
<path d="M2203 193 c-28 -5 -29 -17 -4 -44 19 -20 19 -20 35 12 22 44 23 42
-31 32z"/>
<path d="M1490 182 c0 -13 45 -52 60 -52 8 0 2 12 -15 30 -28 30 -45 38 -45
22z"/>
<path d="M1821 166 c-6 -7 -8 -16 -5 -19 8 -7 -20 -37 -35 -37 -15 0 -41 -42
-41 -67 0 -18 -6 -23 -24 -23 -14 0 -28 -5 -32 -11 -5 -9 8 -10 47 -5 146 17
179 19 179 7 0 -6 11 -11 25 -11 14 0 25 3 25 6 0 14 -35 64 -45 64 -6 0 -15
10 -20 23 -6 12 -19 22 -29 22 -22 0 -33 20 -17 30 15 9 14 22 -3 28 -8 3 -19
0 -25 -7z"/>
<path d="M1480 145 c7 -8 17 -15 22 -15 6 0 5 7 -2 15 -7 8 -17 15 -22 15 -6
0 -5 -7 2 -15z"/>
<path d="M1473 65 c-6 -25 -7 -45 -2 -45 4 0 14 -3 23 -6 13 -5 16 2 16 45 0
66 -22 69 -37 6z"/>
<path d="M1523 89 c4 -13 7 -39 7 -57 0 -21 4 -31 10 -27 6 4 10 25 8 48 -3
47 -11 45 112 32 47 -5 62 -4 55 4 -6 6 -53 14 -105 18 l-93 6 6 -24z"/>
<path d="M1560 41 l0 -41 48 0 c36 0 50 5 60 20 7 11 19 20 27 20 33 0 13 18
-27 25 -120 20 -108 22 -108 -24z"/>
<path d="M3967 30 l-27 -30 30 0 c27 0 30 3 30 30 0 17 -2 30 -3 30 -2 0 -16
-13 -30 -30z"/>
<path d="M1343 13 c9 -2 23 -2 30 0 6 3 -1 5 -18 5 -16 0 -22 -2 -12 -5z"/>
<path d="M1268 3 c7 -3 16 -2 19 1 4 3 -2 6 -13 5 -11 0 -14 -3 -6 -6z"/>
<path d="M1403 3 c9 -2 23 -2 30 0 6 3 -1 5 -18 5 -16 0 -22 -2 -12 -5z"/>
<path d="M1838 3 c12 -2 30 -2 40 0 9 3 -1 5 -23 4 -22 0 -30 -2 -17 -4z"/>
</g>
</svg>
