<?xml version="1.0" standalone="yes"?>
<svg xmlns="http://www.w3.org/2000/svg" width="560" height="560">
<path style="fill:#ffffff; stroke:none;" d="M241 368C232.181 372.784 232.663 381.593 227.157 388.657C221.53 395.878 206.075 396.314 198 394.295C179.515 389.672 174.269 369.32 158.999 360.01C154.384 357.196 141.364 354.367 136.604 358.179C133.721 360.488 136.014 364.639 138.148 366.505C144.347 371.923 152.098 373.884 156.915 381.145C162.763 389.959 167.101 399.578 175.015 406.897C187.365 418.318 210.26 421.895 226 416C226 429.666 229.855 450.095 225.411 463C223.448 468.701 208.689 475.287 210.662 480.726C212 484.414 217.904 484.124 221 483.829C229.163 483.049 240.168 479.834 244.929 472.624C249.681 465.429 249 455.182 249 447C249 430.91 247.103 413.255 253 398L254 398C254 423.569 255.203 449.464 253.96 475C253.675 480.856 241.355 495.019 248.395 498.397C259.515 503.731 274.342 489.442 277.061 480C285.11 452.047 272.254 419.336 279 391C283.9 397.812 282 407.92 282 416L282 459C282 465.913 280.701 474.373 282.92 481C285.883 489.851 294.533 495.148 303 497.895C306.823 499.135 313.035 498.854 314.248 493.945C315.397 489.297 306.347 480.303 306.04 474C304.846 449.459 306 424.573 306 400C311.303 405.9 311 414.505 311 422C311 437.799 305.818 463.73 318.185 475.856C322.517 480.103 346.503 490.46 349.248 479.79C350.318 475.634 344.839 473.602 342.3 471.675C337.954 468.376 335.175 463.312 334.171 458C330.19 436.96 336.887 414.303 332.803 393C331.003 383.607 327.904 373.03 319 368L319 367C348.09 365.732 384.751 353.435 398.969 325.985C407.603 309.316 408.433 291.242 410.17 273C412.197 251.708 406.346 216.092 386 204C392.009 185.005 386.152 169.604 383 151C367.928 151 356.55 154.558 343 161.115C337.652 163.703 329.998 166.717 327 172C302.785 166.398 279.779 165.914 255 167.039C246.707 167.416 235.961 173.503 228 171.823C211.488 168.338 189.665 141.998 170.43 151.603C167.167 153.233 167.09 158.93 166.114 162C163.161 171.289 162.239 181.262 163.17 191C163.597 195.467 166.935 202.65 165.803 206.816C164.744 210.714 160.108 214.506 158.027 218.001C152.754 226.856 148.377 236.791 146.468 247C139.439 284.589 152.045 331.826 187 351.103C204.37 360.681 223.433 360.539 241 368z"/>
<path style="fill:#307bff; stroke:none;" d="M321 252.424C302.653 254.833 282.503 256.591 264 254.83C244.58 252.982 218.387 248.035 201 259.479C174.715 276.78 173.803 324.202 201.09 341.421C225.225 356.651 255.427 356 283 356C294.125 356 305.963 357.145 317 355.711C335.659 353.286 357.573 349.096 368.275 331.576C390.574 295.068 365.526 246.578 321 252.424z"/>
</svg>
